HIERARCHY
ROOT pelvis
{
  OFFSET 0 100 0
  CHANNELS 6 Xposition Yposition Zposition Zrotation Xrotation Yrotation
  JOINT pelvis_right_femur
  {
    OFFSET -10.78128 -3.44521 -0.5502486
    CHANNELS 3 Zrotation Xrotation Yrotation
    JOINT right_femur_tibia
    {
      OFFSET -0.8047443 -44.0398 -0.1307829
      CHANNELS 3 Zrotation Xrotation Yrotation
      JOINT right_tibia_foot
      {
        OFFSET 3.006224 -47.83518 -5
        CHANNELS 3 Zrotation Xrotation Yrotation
        End Site
        {
          OFFSET 0 -5 15
        }
      }
    }
  }
  JOINT pelvis_left_femur
  {
    OFFSET 10.78128 -3.44521 -0.5502486
    CHANNELS 3 Zrotation Xrotation Yrotation
    JOINT left_femur_tibia
    {
      OFFSET 0.8047443 -44.0398 -0.1307829
      CHANNELS 3 Zrotation Xrotation Yrotation
      JOINT left_tibia_foot
      {
        OFFSET -4.370144 -48.10324 -4.275266
        CHANNELS 3 Zrotation Xrotation Yrotation
        End Site
        {
          OFFSET 0 -5 15
        }
      }
    }
  }
  JOINT pelvis_spine1
  {
    OFFSET 0 6.468898 -3.129235
    CHANNELS 3 Zrotation Xrotation Yrotation
    JOINT spine1
    {
      OFFSET 0 23.15396 4.99043
      CHANNELS 3 Zrotation Xrotation Yrotation
      JOINT spine2
      {
        OFFSET 0 20.79997 -5.064912
        CHANNELS 3 Zrotation Xrotation Yrotation
        JOINT neck
        {
          OFFSET 0 14.38658 9.616178
          CHANNELS 3 Zrotation Xrotation Yrotation
          End Site
          {
            OFFSET 0 20 0
          }
        }
      }
      JOINT right_manubrium
      {
        OFFSET -5.722621 16.35077 3.967754
        CHANNELS 3 Zrotation Xrotation Yrotation
        JOINT right_clavicle
        {
          OFFSET -13.16364 1.694482 -4.693211
          CHANNELS 3 Zrotation Xrotation Yrotation
          JOINT right_humerus
          {
            OFFSET -28.5034 -0.3100689 -2.792744
            CHANNELS 3 Zrotation Xrotation Yrotation
            JOINT right_radius
            {
              OFFSET -25.15693 0.02248979 -1.271978
              CHANNELS 3 Zrotation Xrotation Yrotation
              End Site
              {
                OFFSET -15 0 0
              }
            }
          }
        }
      }
      JOINT left_manubrium
      {
        OFFSET 5.722621 16.35077 3.967754
        CHANNELS 3 Zrotation Xrotation Yrotation
        JOINT left_clavicle
        {
          OFFSET 13.16364 1.694482 -4.693211
          CHANNELS 3 Zrotation Xrotation Yrotation
          JOINT left_humerus
          {
            OFFSET 29.39168 -1.063119 -2.237045
            CHANNELS 3 Zrotation Xrotation Yrotation
            JOINT left_radius
            {
              OFFSET 24.59957 -0.9528479 0.9047498
              CHANNELS 3 Zrotation Xrotation Yrotation
              End Site
              {
                OFFSET 15 -0 -0
              }
            }
          }
        }
      }
    }
  }
}
MOTION
Frames: 9
Frame Time: 0.0416666666667
0 103.5113 0 1.059657 -0.4018229 -0.1942441 4.033601 -16.56447 10.60173 -0 39.6093 -0 -6.032454 -18.36393 -3.39305 -7.52813 8.434381 -22.86897 -0 6.724851 -0 15.18401 -11.9199 29.14768 -3.957944 -3.830009 5.132744 2.822921 10.43105 -7.603457 1.358605 21.948 6.494915 2.474363 -25.05143 9.746453 6.329647 -20.21296 12.30836 85.90028 37.50249 -17.59853 -0 0 15.69266 -6.212298 7.864903 4.669351 5.422436 -19.37015 -1.293452 -91.52949 20.74478 19.64612 0 0 -15.00957 16.00949 14.29166 -4.395446
0.2946725 103.3515 1.432759 1.018425 -0.2690609 -0.3697833 4.146029 -17.57134 10.32878 -0 38.40652 -0 -6.056629 -17.61979 -3.326369 -7.502318 8.751043 -22.4734 -0 6.416937 -0 15.12845 -12.44393 28.86981 -3.93222 -3.676905 5.109431 2.848623 10.36781 -7.633004 1.364327 21.89032 6.493836 2.459286 -25.1477 9.739325 6.081482 -20.18831 12.24319 86.22534 37.24449 -17.87357 -0 0 15.37771 -6.330173 7.728216 4.743594 5.510756 -19.58353 -1.351987 -91.20881 20.63878 19.36431 0 0 -15.78626 16.00434 14.1149 -4.271043
0.5843455 102.9208 3.398691 0.8283445 0.4089574 -0.4356137 4.652136 -21.59092 9.359574 -0 33.44539 -0 -6.06282 -14.60854 -2.998021 -7.402648 9.987499 -21.03698 -0 5.460036 -0 14.72309 -14.59395 27.85345 -3.791436 -3.165976 5.060468 2.943356 10.13818 -7.754891 1.419868 21.5849 6.51151 2.469708 -25.547 9.746825 5.244383 -20.07679 11.9638 87.29917 36.35921 -18.9261 -0 0 14.3024 -6.758587 7.365323 4.942646 5.977827 -20.4046 -1.46744 -90.17086 20.23913 18.42859 0 0 -18.65214 15.96561 13.47643 -3.81308
0.8730817 102.281 5.847378 0.5833672 1.132902 -0.3855939 5.193678 -25.00986 8.687911 -0 29.23465 -0 -6.000187 -11.94118 -2.664106 -7.278614 11.06022 -19.92796 -0 5.05691 -0 14.04962 -16.47444 26.97404 -3.597161 -2.837698 5.016881 3.032787 9.97438 -7.886011 1.482598 21.24946 6.566084 2.54594 -25.91715 9.797183 4.721945 -19.95777 11.71046 87.96924 35.74752 -19.81438 -0 0 13.55642 -7.082858 7.292257 5.018674 6.458338 -21.07008 -1.452272 -89.58242 20.06397 17.89784 0 0 -20.80063 15.7779 13.03621 -3.303415
1.160324 101.4775 8.804202 0.2461187 1.855395 -0.2112269 5.802957 -28.2368 8.085054 -0 25.3665 -0 -5.982632 -9.23202 -2.321112 -7.092278 12.19268 -18.80257 -0 5.136717 -0 13.0612 -18.21999 25.91547 -3.323665 -2.564755 4.891122 3.136717 9.851591 -8.047636 1.516946 20.91677 6.651402 2.635112 -26.25405 9.851647 4.318699 -19.79072 11.46757 88.523 35.17352 -20.70769 -0 0 12.82497 -7.4216 7.366798 5.075118 6.895897 -21.70421 -1.44079 -89.14418 20.07193 17.50514 0 0 -22.67323 15.40579 12.66489 -2.65246
1.448402 100.5736 12.28136 -0.1854358 2.571967 0.08776212 6.499737 -31.14734 7.610621 -0 22.00755 -0 -6.032115 -6.603133 -1.960036 -6.839556 13.31628 -17.68631 -0 5.815729 -0 11.78722 -19.68792 24.67718 -2.967661 -2.351341 4.686412 3.253414 9.790472 -8.238665 1.514739 20.57791 6.761782 2.742657 -26.53849 9.895154 4.087592 -19.5698 11.25312 88.92628 34.75471 -21.56589 -0 0 12.16759 -7.710534 7.576167 5.082949 7.26322 -22.26873 -1.440414 -88.86722 20.21385 17.27358 0 0 -24.14127 14.91423 12.30634 -1.967244
1.740877 99.64054 16.29427 -0.7083134 3.25653 0.5014895 7.285204 -33.65335 7.240198 -0 19.16139 -0 -6.191381 -4.124594 -1.56717 -6.517566 14.40593 -16.53057 -0 7.23293 -0 10.24328 -20.74757 23.19115 -2.521841 -2.179567 4.391075 3.380399 9.799991 -8.455883 1.459279 20.2415 6.889854 2.861016 -26.73562 9.899572 4.026035 -19.27274 11.07952 89.21933 34.53763 -22.38551 -0 0 11.56214 -7.930398 7.877947 5.044619 7.519552 -22.74942 -1.494361 -88.70153 20.42969 17.15672 0 0 -25.1746 14.34368 11.89297 -1.326929
2.043031 98.76318 20.84844 -1.299413 3.877055 1.00203 8.133137 -35.54308 6.954592 -0 16.8711 -0 -6.491688 -1.974016 -1.134024 -6.134563 15.36944 -15.32653 -0 9.586321 -0 8.485058 -21.19511 21.43021 -1.984939 -2.045914 4.015174 3.509243 9.888182 -8.686635 1.334555 19.92045 7.025816 2.982028 -26.80625 9.83515 4.140618 -18.88313 10.9655 89.43089 34.59687 -23.13959 -0 0 11.01787 -8.048868 8.230106 4.960691 7.614186 -23.10738 -1.637516 -88.61903 20.64514 17.13413 0 0 -25.69493 13.74537 11.36501 -0.8265925
2.360746 98.04145 25.92746 -1.909965 4.380902 1.537092 8.965699 -36.48297 6.699946 -0 15.19344 -0 -6.945182 -0.4175794 -0.6699043 -5.70855 16.03817 -14.09038 -0 13.13091 -0 6.607862 -20.7776 19.39829 -1.364265 -1.952611 3.592819 3.623599 10.05258 -8.9032 1.127323 19.64579 7.157281 3.08949 -26.71157 9.675059 4.418779 -18.39309 10.93318 89.59663 34.97644 -23.78362 -0 0 10.54654 -8.053471 8.592091 4.849318 7.485441 -23.28902 -1.899868 -88.60181 20.79189 17.20014 0 0 -25.61512 13.16042 10.69607 -0.5327982
